<svg width="1200" height="630" viewBox="0 0 1200 630" xmlns="http://www.w3.org/2000/svg">
  <defs>
    <linearGradient id="solarGradient" x1="0%" y1="0%" x2="100%" y2="100%">
      <stop offset="0%" style="stop-color:#f39c12;stop-opacity:1" />
      <stop offset="100%" style="stop-color:#e67e22;stop-opacity:1" />
    </linearGradient>
    <pattern id="solarGrid" width="40" height="40" patternUnits="userSpaceOnUse">
      <path d="M 40 0 L 0 0 0 40" fill="none" stroke="rgba(255,255,255,0.1)" stroke-width="1"/>
    </pattern>
  </defs>
  
  <!-- Background -->
  <rect width="1200" height="630" fill="url(#solarGradient)"/>
  <rect width="1200" height="630" fill="url(#solarGrid)"/>
  
  <!-- Solar Panel Icon -->
  <g transform="translate(50, 100)">
    <rect x="0" y="0" width="200" height="140" fill="rgba(52,152,219,0.4)" stroke="rgba(52,152,219,0.8)" stroke-width="2"/>
    <line x1="66" y1="0" x2="66" y2="140" stroke="rgba(255,255,255,0.3)" stroke-width="1"/>
    <line x1="133" y1="0" x2="133" y2="140" stroke="rgba(255,255,255,0.3)" stroke-width="1"/>
    <line x1="0" y1="46" x2="200" y2="46" stroke="rgba(255,255,255,0.3)" stroke-width="1"/>
    <line x1="0" y1="93" x2="200" y2="93" stroke="rgba(255,255,255,0.3)" stroke-width="1"/>
    
    <!-- Sun rays -->
    <circle cx="250" cy="70" r="40" fill="rgba(241,196,15,0.8)"/>
    <line x1="250" y1="10" x2="250" y2="30" stroke="rgba(241,196,15,0.6)" stroke-width="3"/>
    <line x1="250" y1="110" x2="250" y2="130" stroke="rgba(241,196,15,0.6)" stroke-width="3"/>
    <line x1="190" y1="70" x2="210" y2="70" stroke="rgba(241,196,15,0.6)" stroke-width="3"/>
    <line x1="290" y1="70" x2="310" y2="70" stroke="rgba(241,196,15,0.6)" stroke-width="3"/>
  </g>
  
  <!-- CRM Automation Flow -->
  <g transform="translate(50, 300)">
    <circle cx="50" cy="50" r="30" fill="#3498db" opacity="0.8"/>
    <text x="50" y="55" text-anchor="middle" fill="white" font-size="12" font-weight="bold">LEAD</text>
    
    <line x1="80" y1="50" x2="150" y2="50" stroke="rgba(255,255,255,0.5)" stroke-width="2"/>
    
    <circle cx="180" cy="50" r="30" fill="#2ecc71" opacity="0.8"/>
    <text x="180" y="55" text-anchor="middle" fill="white" font-size="12" font-weight="bold">CRM</text>
    
    <line x1="210" y1="50" x2="280" y2="50" stroke="rgba(255,255,255,0.5)" stroke-width="2"/>
    
    <circle cx="310" cy="50" r="30" fill="#e74c3c" opacity="0.8"/>
    <text x="310" y="55" text-anchor="middle" fill="white" font-size="12" font-weight="bold">SALE</text>
  </g>
  
  <!-- Text Content -->
  <text x="500" y="180" font-family="Arial, sans-serif" font-size="48" font-weight="bold" fill="white">
    Solar CRM Automation
  </text>
  <text x="500" y="230" font-family="Arial, sans-serif" font-size="24" fill="rgba(255,255,255,0.9)">
    Intelligent Lead Management System
  </text>
  <text x="500" y="280" font-family="Arial, sans-serif" font-size="18" fill="rgba(255,255,255,0.7)">
    Automate solar sales pipeline from lead to conversion
  </text>
  
  <!-- Tech Stack -->
  <g transform="translate(500, 350)">
    <rect x="0" y="0" width="100" height="40" rx="5" fill="rgba(255,87,34,0.8)"/>
    <text x="50" y="25" text-anchor="middle" fill="white" font-size="14" font-weight="bold">n8n</text>
    
    <rect x="120" y="0" width="100" height="40" rx="5" fill="rgba(33,150,243,0.8)"/>
    <text x="170" y="25" text-anchor="middle" fill="white" font-size="14" font-weight="bold">PostgreSQL</text>
    
    <rect x="240" y="0" width="100" height="40" rx="5" fill="rgba(155,89,182,0.8)"/>
    <text x="290" y="25" text-anchor="middle" fill="white" font-size="14" font-weight="bold">HubSpot</text>
  </g>
  
  <!-- Results -->
  <g transform="translate(500, 420)">
    <text x="0" y="0" font-family="Arial, sans-serif" font-size="16" fill="rgba(255,255,255,0.8)">
      <tspan x="0" dy="0">âœ“ 3x Lead Response Speed</tspan>
      <tspan x="0" dy="25">âœ“ 75% Conversion Rate Increase</tspan>
      <tspan x="0" dy="25">âœ“ 50% Admin Time Saved</tspan>
    </text>
  </g>
  
  <!-- Branding -->
  <text x="1150" y="610" text-anchor="end" font-family="Arial, sans-serif" font-size="14" fill="rgba(255,255,255,0.6)">
    Built by K MD SAYAD RAHMAN | Sayad.dev
  </text>
</svg>