<svg xmlns="http://www.w3.org/2000/svg" viewBox="0 0 480 300" width="480" height="300" role="img" aria-label="ReviewShield AI · outreach — concept demo"><defs><radialGradient id="g-reviewshield-ai" cx="0.9" cy="0.1" r="0.8"><stop offset="0" stop-color="#FB923C" stop-opacity="0.28"/><stop offset="1" stop-color="#FB923C" stop-opacity="0"/></radialGradient></defs><rect width="480" height="300" fill="#0B1120"/><rect width="480" height="300" fill="url(#g-reviewshield-ai)"/><rect x="10" y="10" width="460" height="60" rx="12" fill="#101827" stroke="#1E293B"/><text x="26" y="38" font-family="Arial,Helvetica,sans-serif" font-size="14" font-weight="700" fill="#E6EDF7">ReviewShield AI · outreach</text><text x="26" y="56" font-family="ui-monospace,Menlo,monospace" font-size="9" fill="#8FA3BF">CONCEPT UI · ILLUSTRATIVE</text><rect x="352" y="22" width="104" height="22" rx="11" fill="#FB923C" opacity="0.14" stroke="#FB923C" stroke-width="1.2"/><text x="404" y="37" text-anchor="middle" font-family="Arial,Helvetica,sans-serif" font-size="10.5" font-weight="700" fill="#FB923C">● LIVE DEMO</text><rect x="10" y="74" width="460" height="56" rx="12" fill="#0F172A" stroke="#1E293B"/><circle cx="34" cy="102" r="13" fill="#FB923C" opacity="0.15" stroke="#FB923C" stroke-width="1.4"/><text x="34" y="106" text-anchor="middle" font-family="ui-monospace,Menlo,monospace" font-size="11" font-weight="700" fill="#FB923C">1</text><text x="60" y="106" font-family="Arial,Helvetica,sans-serif" font-size="12.5" fill="#E6EDF7">214 customers scored</text><circle cx="430" cy="100" r="5" fill="#34D399"/><text x="442" y="104" font-family="ui-monospace,Menlo,monospace" font-size="9" fill="#34D399">COMPLETE</text><rect x="10" y="140" width="460" height="56" rx="12" fill="#0F172A" stroke="#1E293B"/><circle cx="34" cy="168" r="13" fill="#FB923C" opacity="0.15" stroke="#FB923C" stroke-width="1.4"/><text x="34" y="172" text-anchor="middle" font-family="ui-monospace,Menlo,monospace" font-size="11" font-weight="700" fill="#FB923C">2</text><text x="60" y="172" font-family="Arial,Helvetica,sans-serif" font-size="12.5" fill="#E6EDF7">198 positive → public review links</text><circle cx="430" cy="166" r="5" fill="#34D399"/><text x="442" y="170" font-family="ui-monospace,Menlo,monospace" font-size="9" fill="#34D399">COMPLETE</text><rect x="10" y="206" width="460" height="56" rx="12" fill="#0F172A" stroke="#1E293B"/><circle cx="34" cy="234" r="13" fill="#FB923C" opacity="0.15" stroke="#FB923C" stroke-width="1.4"/><text x="34" y="238" text-anchor="middle" font-family="ui-monospace,Menlo,monospace" font-size="11" font-weight="700" fill="#FB923C">3</text><text x="60" y="238" font-family="Arial,Helvetica,sans-serif" font-size="12.5" fill="#E6EDF7">16 negative → private feedback</text><circle cx="430" cy="232" r="5" fill="#FBBF24"/><text x="442" y="236" font-family="ui-monospace,Menlo,monospace" font-size="9" fill="#FBBF24">FLAGGED</text><rect x="10" y="248" width="460" height="34" rx="10" fill="#FB923C" opacity="0.10" stroke="#FB923C" stroke-width="1.2"/><text x="240" y="269" text-anchor="middle" font-family="ui-monospace,Menlo,monospace" font-size="11.5" font-weight="700" fill="#FB923C">◈ 32-node pipeline · sentiment-gated</text></svg>